<?xml version="1.0" encoding="UTF-8"?>
<svg xmlns="http://www.w3.org/2000/svg" viewBox="0 0 161.41 161.41" preserveAspectRatio="xMidYMid meet">
  <g transform="translate(0.0000 1.0400)">
    <defs><style>.cls-1{fill:#231f20;}.cls-2{fill:#e6e7e8;stroke:#231f20;stroke-miterlimit:10;}</style></defs><ellipse class="cls-2" cx="80.2" cy="79.75" rx="79.3" ry="76.1" transform="translate(-32.9 80.49) rotate(-45.21)"/><path class="cls-1" d="M29.56,29.47c-6.91,6.97-17.98,7.24-24.66.6C-1.79,23.44-1.6,12.37,5.31,5.41c6.91-6.97,17.98-7.24,24.66-.6,6.68,6.63,6.5,17.7-.42,24.67ZM12.09,12.13c-3.05,3.07-3.13,7.95-.18,10.88s7.83,2.81,10.88-.26,3.13-7.95.18-10.88c-2.95-2.93-7.83-2.81-10.88.26Z"/><path class="cls-1" d="M131.86,129.85c6.91-6.97,17.98-7.24,24.66-.6,6.68,6.63,6.5,17.7-.42,24.67-6.91,6.97-17.98,7.24-24.66.6-6.68-6.63-6.5-17.7.42-24.67ZM149.33,147.19c3.05-3.07,3.13-7.95.18-10.88-2.95-2.93-7.83-2.81-10.88.26-3.05,3.07-3.13,7.95-.18,10.88,2.95,2.93,7.83,2.81,10.88-.26Z"/>
  </g>
</svg>
